<?xml version="1.0" encoding="utf-8"?>
<!-- Generator: Adobe Illustrator 16.0.0, SVG Export Plug-In . SVG Version: 6.00 Build 0)  -->
<!DOCTYPE svg PUBLIC "-//W3C//DTD SVG 1.1//EN" "http://www.w3.org/Graphics/SVG/1.1/DTD/svg11.dtd">
<svg version="1.1" id="Layer_1" xmlns="http://www.w3.org/2000/svg" xmlns:xlink="http://www.w3.org/1999/xlink" x="0px" y="0px"
	 width="231.777px" height="231.777px" viewBox="0 0 231.777 231.777" enable-background="new 0 0 231.777 231.777"
	 xml:space="preserve">
<g id="Layer_1_2_" display="none">
	<g id="Layer_1_1_">
		<g id="border" display="inline">
			<path fill="#FFFFFF" d="M11.782,200.085c0,10.959,8.884,19.845,19.843,19.845h168.394c10.959,0,19.843-8.886,19.843-19.845
				V31.692c0-10.959-8.884-19.843-19.843-19.843H31.625c-10.959,0-19.843,8.884-19.843,19.843V200.085z"/>
			<path fill="none" stroke="#AF1F23" stroke-width="16" stroke-miterlimit="10" d="M11.782,200.085
				c0,10.959,8.884,19.845,19.843,19.845h168.394c10.959,0,19.843-8.886,19.843-19.845V31.692c0-10.959-8.884-19.843-19.843-19.843
				H31.625c-10.959,0-19.843,8.884-19.843,19.843V200.085z"/>
		</g>
		<g id="X" display="inline">
			<g>
				<g>
					<defs>
						<polygon id="SVGID_1_" points="231.778,7.43 224.346,0 115.889,108.457 7.432,0 0.001,7.431 108.458,115.888 0,224.347 
							7.432,231.776 115.889,123.318 224.348,231.777 231.778,224.346 123.32,115.888 						"/>
					</defs>
					<clipPath id="SVGID_2_">
						<use xlink:href="#SVGID_1_"  overflow="visible"/>
					</clipPath>
					<g id="Base" clip-path="url(#SVGID_2_)">
						<path fill="#FFFFFF" d="M-2.022,205.685c0,15.653,12.69,28.347,28.348,28.347h179.458c15.654,0,28.347-12.691,28.347-28.347
							V26.226c0-15.656-12.69-28.349-28.347-28.349H26.325C10.67-2.121-2.022,10.57-2.022,26.226V205.685z"/>
					</g>
				</g>
			</g>
		</g>
		<g display="inline">
			<path fill="#010101" d="M41.094,196.926c0,0.472,0.381,0.853,0.851,0.853H153.63c0.471,0,0.852-0.381,0.852-0.853v-29.479
				c0-0.47-0.381-0.851-0.852-0.851H41.944c-0.47,0-0.852,0.381-0.852,0.851L41.094,196.926L41.094,196.926z"/>
		</g>
		<circle display="inline" fill="#010101" cx="172.904" cy="182.085" r="18.425"/>
	</g>
	<g id="Layer_2" display="inline">
		<g id="border_6_">
			<path fill="#AF1F23" d="M12,199.235c0,10.959,8.884,19.843,19.843,19.843h168.393c10.959,0,19.845-8.884,19.845-19.843V30.844
				c0-10.961-8.886-19.845-19.845-19.845H31.843C20.884,11,12,19.884,12,30.844V199.235z"/>
			<path fill="none" stroke="#AF1F23" stroke-width="16" stroke-miterlimit="10" d="M12,199.235
				c0,10.959,8.884,19.843,19.843,19.843h168.393c10.959,0,19.845-8.884,19.845-19.843V30.844c0-10.961-8.886-19.845-19.845-19.845
				H31.843C20.884,11,12,19.884,12,30.844V199.235z"/>
		</g>
		<g id="front_4_">
			<path fill="#FFFFFF" d="M55.549,167.023c0,4.696,3.808,8.504,8.505,8.504h103.971c4.697,0,8.504-3.808,8.504-8.504V63.052
				c0-4.697-3.807-8.506-8.504-8.506H64.053c-4.697,0-8.505,3.809-8.505,8.506V167.023z"/>
		</g>
		<g id="BODY">
			<path fill="#AF1F23" d="M100.939,215.504c0,0.472,0.381,0.853,0.852,0.853h29.479c0.469,0,0.851-0.381,0.851-0.853V103.82
				c0-0.47-0.382-0.851-0.851-0.851h-29.48c-0.471,0-0.852,0.381-0.852,0.851L100.939,215.504L100.939,215.504z"/>
		</g>
		<circle id="TESTA" fill="#AF1F23" cx="116.429" cy="84.544" r="18.425"/>
	</g>
</g>
<g id="Layer_2_1_">
	<g id="border_10_">
		<path fill="#FFFFFF" d="M12.453,201.429c0,10.959,8.884,19.843,19.843,19.843h168.393c10.959,0,19.844-8.884,19.844-19.843V33.037
			c0-10.959-8.885-19.843-19.844-19.843H32.296c-10.959,0-19.843,8.884-19.843,19.843V201.429z"/>
		<path fill="none" stroke="#B00000" stroke-width="16" stroke-miterlimit="10" d="M12.453,201.429
			c0,10.959,8.884,19.843,19.843,19.843h168.393c10.959,0,19.844-8.884,19.844-19.843V33.037c0-10.959-8.885-19.843-19.844-19.843
			H32.296c-10.959,0-19.843,8.884-19.843,19.843V201.429z"/>
	</g>
	<path display="none" fill="#231F20" d="M204.67,205.411L204.67,205.411V29.052H28.313v0.002L204.67,205.411z"/>
</g>
<g>
	<path fill="#231F20" d="M195.497,28.708H36.146c-2.011,0-3.855,0.702-5.311,1.869l171.296,171.296
		c1.167-1.456,1.869-3.301,1.869-5.311V37.212C204.001,32.516,200.192,28.708,195.497,28.708z"/>
</g>
</svg>
