<?xml version="1.0" encoding="utf-8"?>
<!-- Generator: Adobe Illustrator 16.0.0, SVG Export Plug-In . SVG Version: 6.00 Build 0)  -->
<!DOCTYPE svg PUBLIC "-//W3C//DTD SVG 1.1//EN" "http://www.w3.org/Graphics/SVG/1.1/DTD/svg11.dtd">
<svg version="1.1" xmlns="http://www.w3.org/2000/svg" xmlns:xlink="http://www.w3.org/1999/xlink" x="0px" y="0px"
	 width="231.778px" height="231.777px" viewBox="0 0 231.778 231.777" enable-background="new 0 0 231.778 231.777"
	 xml:space="preserve">
<g id="Layer_1" display="none">
	<g id="border" display="inline">
		<path fill="#FFFFFF" d="M11.782,200.085c0,10.959,8.884,19.843,19.843,19.843h168.393c10.959,0,19.843-8.884,19.843-19.843V31.692
			c0-10.959-8.884-19.843-19.843-19.843H31.625c-10.959,0-19.843,8.884-19.843,19.843V200.085z"/>
		<path fill="none" stroke="#AF1F23" stroke-width="16" stroke-miterlimit="10" d="M11.782,200.085
			c0,10.959,8.884,19.843,19.843,19.843h168.393c10.959,0,19.843-8.884,19.843-19.843V31.692c0-10.959-8.884-19.843-19.843-19.843
			H31.625c-10.959,0-19.843,8.884-19.843,19.843V200.085z"/>
	</g>
	<g id="X" display="inline">
		<defs>
			<polygon id="x" points="231.778,7.43 224.346,0 115.889,108.457 7.432,0 0.001,7.431 108.458,115.888 0,224.347 7.432,231.776
				115.889,123.318 224.348,231.777 231.778,224.346 123.32,115.888 			"/>
		</defs>
		<clipPath id="x_1_">
			<use xlink:href="#x"  overflow="visible"/>
		</clipPath>
		<g id="Base" clip-path="url(#x_1_)">
			<path fill="#FFFFFF" d="M-2.022,205.685c0,15.655,12.691,28.347,28.347,28.347h179.458c15.655,0,28.347-12.691,28.347-28.347
				V26.226c0-15.656-12.691-28.347-28.347-28.347H26.325c-15.655,0-28.347,12.691-28.347,28.347V205.685z"/>
		</g>
	</g>
	<g id="front_1_" display="inline">
		<path fill="#EC9E22" d="M27.642,195.562c0,4.696,3.807,8.504,8.504,8.504h159.35c4.696,0,8.504-3.808,8.504-8.504V36.212
			c0-4.697-3.808-8.504-8.504-8.504H36.146c-4.697,0-8.504,3.807-8.504,8.504V195.562z"/>
	</g>
	<g display="inline">
		<path fill="#010101" d="M41.094,196.926c0,0.47,0.381,0.851,0.851,0.851h111.684c0.47,0,0.851-0.381,0.851-0.851v-29.479
			c0-0.47-0.381-0.851-0.851-0.851H41.944c-0.47,0-0.851,0.381-0.851,0.851V196.926z"/>
	</g>
	<circle display="inline" fill="#010101" cx="172.904" cy="182.085" r="18.425"/>
</g>
<g id="Layer_2">
	<g id="border_6_">
		<path fill="#AF1F23" d="M12,199.235c0,10.959,8.884,19.843,19.843,19.843h168.392c10.959,0,19.844-8.884,19.844-19.843V30.843
			c0-10.959-8.885-19.843-19.844-19.843H31.843C20.884,11,12,19.884,12,30.843V199.235z"/>
		<path fill="none" stroke="#AF1F23" stroke-width="16" stroke-miterlimit="10" d="M12,199.235c0,10.959,8.884,19.843,19.843,19.843
			h168.392c10.959,0,19.844-8.884,19.844-19.843V30.843c0-10.959-8.885-19.843-19.844-19.843H31.843C20.884,11,12,19.884,12,30.843
			V199.235z"/>
	</g>
	<g id="front_4_">
		<path fill="#FFFFFF" d="M55.549,167.023c0,4.696,3.807,8.504,8.504,8.504h103.971c4.697,0,8.504-3.808,8.504-8.504V63.051
			c0-4.697-3.807-8.504-8.504-8.504H64.053c-4.697,0-8.504,3.807-8.504,8.504V167.023z"/>
	</g>
	<g id="BODY">
		<path fill="#AF1F23" d="M100.939,215.504c0,0.47,0.381,0.851,0.851,0.851h29.48c0.469,0,0.85-0.381,0.85-0.851V103.82
			c0-0.47-0.381-0.851-0.85-0.851h-29.48c-0.47,0-0.851,0.381-0.851,0.851V215.504z"/>
	</g>
	<circle id="TESTA" fill="#AF1F23" cx="116.429" cy="84.544" r="18.425"/>
</g>
</svg>
