<?xml version="1.0" encoding="utf-8"?>
<!-- Generator: Adobe Illustrator 16.0.0, SVG Export Plug-In . SVG Version: 6.00 Build 0)  -->
<!DOCTYPE svg PUBLIC "-//W3C//DTD SVG 1.1//EN" "http://www.w3.org/Graphics/SVG/1.1/DTD/svg11.dtd">
<svg version="1.1" id="Layer_1" xmlns="http://www.w3.org/2000/svg" xmlns:xlink="http://www.w3.org/1999/xlink" x="0px" y="0px"
	 width="231.777px" height="231.777px" viewBox="0 0 231.777 231.777" enable-background="new 0 0 231.777 231.777"
	 xml:space="preserve">
<g id="Layer_1_2_" display="none">
	<g id="Layer_1_1_" display="inline">
		<g id="border">
			<path fill="#FFFFFF" d="M11.782,200.085c0,10.959,8.884,19.845,19.843,19.845h168.394c10.959,0,19.843-8.886,19.843-19.845
				V31.692c0-10.959-8.884-19.843-19.843-19.843H31.625c-10.959,0-19.843,8.884-19.843,19.843V200.085z"/>
			<path fill="none" stroke="#AF1F23" stroke-width="16" stroke-miterlimit="10" d="M11.782,200.085
				c0,10.959,8.884,19.845,19.843,19.845h168.394c10.959,0,19.843-8.886,19.843-19.845V31.692c0-10.959-8.884-19.843-19.843-19.843
				H31.625c-10.959,0-19.843,8.884-19.843,19.843V200.085z"/>
		</g>
		<g id="X">
			<g>
				<g>
					<defs>
						<polygon id="SVGID_1_" points="231.778,7.43 224.346,0 115.889,108.457 7.432,0 0.001,7.431 108.458,115.888 0,224.347 
							7.432,231.776 115.889,123.318 224.348,231.777 231.778,224.346 123.32,115.888 						"/>
					</defs>
					<clipPath id="SVGID_2_">
						<use xlink:href="#SVGID_1_"  overflow="visible"/>
					</clipPath>
					<g id="Base" clip-path="url(#SVGID_2_)">
						<path fill="#FFFFFF" d="M-2.022,205.685c0,15.653,12.69,28.347,28.348,28.347h179.458c15.654,0,28.347-12.691,28.347-28.347
							V26.226c0-15.656-12.69-28.349-28.347-28.349H26.325C10.67-2.121-2.022,10.57-2.022,26.226V205.685z"/>
					</g>
				</g>
			</g>
		</g>
		<g id="front_1_">
			<path fill="#EC9E22" d="M27.642,195.562c0,4.694,3.808,8.504,8.504,8.504h159.351c4.695,0,8.504-3.81,8.504-8.504V36.212
				c0-4.695-3.809-8.504-8.504-8.504H36.146c-4.696,0-8.504,3.809-8.504,8.504V195.562z"/>
		</g>
		<g>
			<path fill="#010101" d="M41.094,196.926c0,0.472,0.381,0.853,0.851,0.853H153.63c0.471,0,0.852-0.381,0.852-0.853v-29.479
				c0-0.47-0.381-0.851-0.852-0.851H41.944c-0.47,0-0.852,0.381-0.852,0.851L41.094,196.926L41.094,196.926z"/>
		</g>
		<circle fill="#010101" cx="172.904" cy="182.085" r="18.425"/>
	</g>
	<g id="Layer_2" display="inline">
		<g id="border_6_">
			<path fill="#AF1F23" d="M12,199.235c0,10.959,8.884,19.843,19.843,19.843h168.393c10.959,0,19.845-8.884,19.845-19.843V30.844
				c0-10.961-8.886-19.845-19.845-19.845H31.843C20.884,11,12,19.884,12,30.844V199.235z"/>
			<path fill="none" stroke="#AF1F23" stroke-width="16" stroke-miterlimit="10" d="M12,199.235
				c0,10.959,8.884,19.843,19.843,19.843h168.393c10.959,0,19.845-8.884,19.845-19.843V30.844c0-10.961-8.886-19.845-19.845-19.845
				H31.843C20.884,11,12,19.884,12,30.844V199.235z"/>
		</g>
		<g id="front_4_">
			<path fill="#FFFFFF" d="M55.549,167.023c0,4.696,3.808,8.504,8.505,8.504h103.971c4.697,0,8.504-3.808,8.504-8.504V63.052
				c0-4.697-3.807-8.506-8.504-8.506H64.053c-4.697,0-8.505,3.809-8.505,8.506V167.023z"/>
		</g>
		<g id="BODY">
			<path fill="#AF1F23" d="M100.939,215.504c0,0.472,0.381,0.853,0.852,0.853h29.479c0.469,0,0.851-0.381,0.851-0.853V103.82
				c0-0.47-0.382-0.851-0.851-0.851h-29.48c-0.471,0-0.852,0.381-0.852,0.851L100.939,215.504L100.939,215.504z"/>
		</g>
		<circle id="TESTA" fill="#AF1F23" cx="116.429" cy="84.544" r="18.425"/>
	</g>
</g>
<g id="Layer_2_1_" display="none">
	<g id="border_10_" display="inline">
		<path fill="#FFFFFF" d="M12.453,200.429c0,10.959,8.884,19.843,19.843,19.843h168.393c10.959,0,19.844-8.884,19.844-19.843V32.037
			c0-10.959-8.885-19.843-19.844-19.843H32.296c-10.959,0-19.843,8.884-19.843,19.843V200.429z"/>
		<path fill="none" stroke="#B00000" stroke-width="16" stroke-miterlimit="10" d="M12.453,200.429
			c0,10.959,8.884,19.843,19.843,19.843h168.393c10.959,0,19.844-8.884,19.844-19.843V32.037c0-10.959-8.885-19.843-19.844-19.843
			H32.296c-10.959,0-19.843,8.884-19.843,19.843V200.429z"/>
	</g>
	<polygon display="inline" fill="#231F20" points="204.67,204.411 204.67,204.411 204.67,28.052 28.313,28.052 28.313,28.054 	"/>
</g>
<g id="Layer_3">
	<g id="border_1_">
		<path fill="#FFFFFF" d="M11.782,200.085c0,10.959,8.884,19.845,19.843,19.845h168.394c10.959,0,19.843-8.886,19.843-19.845V31.692
			c0-10.959-8.884-19.843-19.843-19.843H31.625c-10.959,0-19.843,8.884-19.843,19.843V200.085z"/>
		<path fill="none" stroke="#AF1F23" stroke-width="16" stroke-miterlimit="10" d="M11.782,200.085
			c0,10.959,8.884,19.845,19.843,19.845h168.394c10.959,0,19.843-8.886,19.843-19.845V31.692c0-10.959-8.884-19.843-19.843-19.843
			H31.625c-10.959,0-19.843,8.884-19.843,19.843V200.085z"/>
	</g>
	<g id="X_1_" display="none">
		<g display="inline">
			<g>
				<defs>
					<polygon id="SVGID_3_" points="231.778,7.43 224.346,0 115.889,108.457 7.432,0 0.001,7.431 108.458,115.888 0,224.347 
						7.432,231.776 115.889,123.318 224.348,231.777 231.778,224.346 123.32,115.888 					"/>
				</defs>
				<clipPath id="SVGID_4_">
					<use xlink:href="#SVGID_3_"  overflow="visible"/>
				</clipPath>
				<g id="Base_1_" clip-path="url(#SVGID_4_)">
					<path fill="#FFFFFF" d="M-2.022,205.685c0,15.653,12.69,28.347,28.348,28.347h179.458c15.654,0,28.347-12.691,28.347-28.347
						V26.226c0-15.656-12.69-28.349-28.347-28.349H26.325C10.67-2.121-2.022,10.57-2.022,26.226V205.685z"/>
				</g>
			</g>
		</g>
	</g>
	<g id="front_2_" display="none">
		<path display="inline" fill="#EC9E22" d="M27.642,195.562c0,4.694,3.808,8.504,8.504,8.504h159.351
			c4.695,0,8.504-3.81,8.504-8.504V36.212c0-4.695-3.809-8.504-8.504-8.504H36.146c-4.696,0-8.504,3.809-8.504,8.504V195.562z"/>
	</g>
	<g>
		<path fill="#AF1F23" d="M41.094,189.926c0,0.472,0.381,0.853,0.851,0.853H153.63c0.471,0,0.852-0.381,0.852-0.853v-29.479
			c0-0.47-0.381-0.851-0.852-0.851H41.944c-0.47,0-0.852,0.381-0.852,0.851L41.094,189.926L41.094,189.926z"/>
		<circle fill="#AF1F23" cx="172.904" cy="175.085" r="18.425"/>
	</g>
</g>
<polyline fill="#19397A" points="189.302,41.929 116.01,151.188 42.717,41.929 "/>
</svg>
