<?xml version="1.0" encoding="utf-8"?>
<!-- Generator: Adobe Illustrator 16.0.0, SVG Export Plug-In . SVG Version: 6.00 Build 0)  -->
<!DOCTYPE svg PUBLIC "-//W3C//DTD SVG 1.1//EN" "http://www.w3.org/Graphics/SVG/1.1/DTD/svg11.dtd">
<svg version="1.1" id="Layer_1" xmlns="http://www.w3.org/2000/svg" xmlns:xlink="http://www.w3.org/1999/xlink" x="0px" y="0px"
	 width="231.777px" height="231.777px" viewBox="0 0 231.777 231.777" enable-background="new 0 0 231.777 231.777"
	 xml:space="preserve">
<g id="Layer_1_2_" display="none">
	<g id="Layer_1_1_" display="inline">
		<g id="border">
			<path fill="#FFFFFF" d="M11.782,200.085c0,10.959,8.884,19.846,19.843,19.846h168.395c10.959,0,19.843-8.887,19.843-19.846
				V31.692c0-10.959-8.884-19.843-19.843-19.843H31.625c-10.959,0-19.843,8.884-19.843,19.843V200.085z"/>
			<path fill="none" stroke="#AF1F23" stroke-width="16" stroke-miterlimit="10" d="M11.782,200.085
				c0,10.959,8.884,19.846,19.843,19.846h168.395c10.959,0,19.843-8.887,19.843-19.846V31.692c0-10.959-8.884-19.843-19.843-19.843
				H31.625c-10.959,0-19.843,8.884-19.843,19.843V200.085z"/>
		</g>
		<g id="X">
			<g>
				<g>
					<g>
						<defs>
							<polygon id="SVGID_1_" points="231.778,7.43 224.346,0 115.889,108.457 7.432,0 0.001,7.431 108.458,115.888 0,224.347 
								7.432,231.776 115.889,123.318 224.348,231.777 231.778,224.346 123.32,115.888 							"/>
						</defs>
						<clipPath id="SVGID_2_">
							<use xlink:href="#SVGID_1_"  overflow="visible"/>
						</clipPath>
						<g id="Base" clip-path="url(#SVGID_2_)">
							<path fill="#FFFFFF" d="M-2.022,205.685c0,15.652,12.689,28.347,28.348,28.347h179.458c15.654,0,28.347-12.691,28.347-28.347
								V26.226c0-15.656-12.689-28.35-28.347-28.35H26.325C10.67-2.121-2.022,10.57-2.022,26.226V205.685z"/>
						</g>
					</g>
				</g>
			</g>
		</g>
		<g id="front_1_">
			<path fill="#EC9E22" d="M27.642,195.562c0,4.693,3.808,8.504,8.504,8.504h159.351c4.695,0,8.504-3.811,8.504-8.504V36.212
				c0-4.694-3.809-8.504-8.504-8.504H36.146c-4.696,0-8.504,3.81-8.504,8.504V195.562z"/>
		</g>
		<g>
			<path fill="#010101" d="M41.094,196.926c0,0.473,0.381,0.854,0.851,0.854H153.63c0.472,0,0.853-0.381,0.853-0.854v-29.479
				c0-0.47-0.381-0.851-0.853-0.851H41.944c-0.47,0-0.853,0.381-0.853,0.851L41.094,196.926L41.094,196.926z"/>
		</g>
		<circle fill="#010101" cx="172.904" cy="182.085" r="18.425"/>
	</g>
	<g id="Layer_2" display="inline">
		<g id="border_6_">
			<path fill="#AF1F23" d="M12,199.235c0,10.959,8.884,19.843,19.843,19.843h168.394c10.959,0,19.845-8.884,19.845-19.843V30.844
				c0-10.962-8.886-19.846-19.845-19.846H31.843C20.884,11,12,19.884,12,30.844V199.235z"/>
			<path fill="none" stroke="#AF1F23" stroke-width="16" stroke-miterlimit="10" d="M12,199.235
				c0,10.959,8.884,19.843,19.843,19.843h168.394c10.959,0,19.845-8.884,19.845-19.843V30.844c0-10.962-8.886-19.846-19.845-19.846
				H31.843C20.884,11,12,19.884,12,30.844V199.235z"/>
		</g>
		<g id="front_4_">
			<path fill="#FFFFFF" d="M55.549,167.023c0,4.696,3.809,8.504,8.506,8.504h103.971c4.697,0,8.504-3.808,8.504-8.504V63.052
				c0-4.697-3.807-8.507-8.504-8.507H64.053c-4.697,0-8.506,3.81-8.506,8.507L55.549,167.023L55.549,167.023z"/>
		</g>
		<g id="BODY">
			<path fill="#AF1F23" d="M100.939,215.504c0,0.473,0.381,0.854,0.852,0.854h29.479c0.469,0,0.851-0.381,0.851-0.854V103.82
				c0-0.47-0.382-0.851-0.851-0.851h-29.48c-0.471,0-0.852,0.381-0.852,0.851L100.939,215.504L100.939,215.504z"/>
		</g>
		<circle id="TESTA" fill="#AF1F23" cx="116.429" cy="84.544" r="18.425"/>
	</g>
</g>
<g id="Layer_2_1_" display="none">
	<g id="border_10_" display="inline">
		<path fill="#FFFFFF" d="M12.453,200.429c0,10.959,8.884,19.843,19.843,19.843h168.394c10.959,0,19.844-8.884,19.844-19.843V32.037
			c0-10.959-8.885-19.843-19.844-19.843H32.296c-10.959,0-19.843,8.884-19.843,19.843V200.429z"/>
		<path fill="none" stroke="#B00000" stroke-width="16" stroke-miterlimit="10" d="M12.453,200.429
			c0,10.959,8.884,19.843,19.843,19.843h168.394c10.959,0,19.844-8.884,19.844-19.843V32.037c0-10.959-8.885-19.843-19.844-19.843
			H32.296c-10.959,0-19.843,8.884-19.843,19.843V200.429z"/>
	</g>
	<polygon display="inline" fill="#231F20" points="204.67,204.411 204.67,204.411 204.67,28.052 28.313,28.052 28.313,28.054 	"/>
</g>
<g>
	<g id="border_1_">
		<path fill="#FFFFFF" d="M11.782,200.085c0,10.959,8.884,19.846,19.843,19.846h168.395c10.959,0,19.843-8.887,19.843-19.846V31.692
			c0-10.959-8.884-19.843-19.843-19.843H31.625c-10.959,0-19.843,8.884-19.843,19.843V200.085z"/>
		<path fill="none" stroke="#AF1F23" stroke-width="16" stroke-miterlimit="10" d="M11.782,200.085
			c0,10.959,8.884,19.846,19.843,19.846h168.395c10.959,0,19.843-8.887,19.843-19.846V31.692c0-10.959-8.884-19.843-19.843-19.843
			H31.625c-10.959,0-19.843,8.884-19.843,19.843V200.085z"/>
	</g>
	<path fill="#AF1F23" d="M102.471,79.698c-0.429,0-0.772,0.232-0.772,0.518v68.042c0,0.286,0.344,0.52,0.772,0.52h26.66
		c0.426,0,0.771-0.232,0.771-0.52V80.216c0-0.286-0.345-0.519-0.771-0.519L102.471,79.698L102.471,79.698z"/>
	<circle fill="#AF1F23" cx="115.902" cy="167.197" r="18.426"/>
	<path fill="#AF1F23" d="M62.938,148.002c0,0.429,0.354,0.772,0.79,0.772h103.847c0.438,0,0.791-0.345,0.791-0.772v-26.66
		c0-0.426-0.354-0.77-0.791-0.77H63.728c-0.438,0-0.791,0.344-0.791,0.77L62.938,148.002L62.938,148.002z"/>
	<path fill="#AF1F23" d="M116.832,112.051c0.271,0.27,0.645,0.33,0.836,0.138l45.975-45.974c0.192-0.192,0.132-0.566-0.138-0.837
		L146.7,48.573c-0.269-0.269-0.642-0.328-0.835-0.135L99.891,94.412c-0.193,0.194-0.135,0.567,0.135,0.835L116.832,112.051
		L116.832,112.051z"/>
	<path fill="#AF1F23" d="M131.651,95.247c0.27-0.27,0.33-0.644,0.137-0.836L85.816,48.438c-0.193-0.193-0.567-0.132-0.837,0.137
		L68.175,65.379c-0.269,0.27-0.327,0.643-0.135,0.835l45.974,45.975c0.192,0.192,0.565,0.134,0.836-0.136L131.651,95.247
		L131.651,95.247z"/>
</g>
</svg>
