<?xml version="1.0" encoding="utf-8"?>
<!-- Generator: Adobe Illustrator 16.0.0, SVG Export Plug-In . SVG Version: 6.00 Build 0)  -->
<!DOCTYPE svg PUBLIC "-//W3C//DTD SVG 1.1//EN" "http://www.w3.org/Graphics/SVG/1.1/DTD/svg11.dtd">
<svg version="1.1" id="Layer_1" xmlns="http://www.w3.org/2000/svg" xmlns:xlink="http://www.w3.org/1999/xlink" x="0px" y="0px"
	 width="476.221px" height="368.504px" viewBox="-431.839 286.162 476.221 368.504"
	 enable-background="new -431.839 286.162 476.221 368.504" xml:space="preserve">
<g>
	<g id="Layer_2_1_">
		<g id="border_10_">
			<path fill="#FFFFFF" d="M-409.161,389.373c0,4.688,3.801,8.489,8.489,8.489h72.045c4.688,0,8.49-3.802,8.49-8.489v-72.044
				c0-4.688-3.802-8.489-8.49-8.489h-72.044c-4.688,0-8.489,3.801-8.489,8.489L-409.161,389.373L-409.161,389.373z"/>
			<path fill="none" stroke="#AF1F23" stroke-width="6.8454" stroke-miterlimit="10" d="M-409.161,389.373
				c0,4.688,3.801,8.489,8.489,8.489h72.045c4.688,0,8.49-3.802,8.49-8.489v-72.044c0-4.688-3.802-8.489-8.49-8.489h-72.044
				c-4.688,0-8.489,3.801-8.489,8.489L-409.161,389.373L-409.161,389.373z"/>
		</g>
		<path display="none" fill="#231F20" d="M-326.923,391.077L-326.923,391.077v-75.453h-75.452v0.001L-326.923,391.077z"/>
	</g>
	<g>
		<path fill="#231F20" d="M-330.847,315.477h-68.177c-0.859,0-1.648,0.299-2.271,0.799l73.287,73.287c0.5-0.623,0.8-1.412,0.8-2.271
			v-68.176C-327.21,317.105-328.839,315.477-330.847,315.477z"/>
	</g>
</g>
<g id="Layer_2">
	<g id="border_6_">
		<path fill="#AF2025" d="M-409.161,502.76c0,4.688,3.801,8.488,8.489,8.488h72.044c4.688,0,8.49-3.801,8.49-8.488v-72.045
			c0-4.689-3.803-8.49-8.49-8.49h-72.043c-4.688,0-8.489,3.801-8.489,8.49L-409.161,502.76L-409.161,502.76z"/>
		<path fill="none" stroke="#AF2025" stroke-width="6.8454" stroke-miterlimit="10" d="M-409.161,502.76
			c0,4.688,3.801,8.488,8.489,8.488h72.044c4.688,0,8.49-3.801,8.49-8.488v-72.045c0-4.689-3.803-8.49-8.49-8.49h-72.043
			c-4.688,0-8.489,3.801-8.489,8.49L-409.161,502.76L-409.161,502.76z"/>
	</g>
	<g id="front_4_">
		<path fill="#FFFFFF" d="M-390.529,488.977c0,2.01,1.628,3.64,3.638,3.64h44.483c2.01,0,3.639-1.629,3.639-3.64v-44.482
			c0-2.01-1.629-3.639-3.639-3.639h-44.483c-2.01,0-3.638,1.629-3.638,3.639V488.977z"/>
	</g>
	<g id="BODY">
		<path fill="#AF2025" d="M-371.109,509.719c0,0.202,0.163,0.365,0.364,0.365h12.612c0.2,0,0.363-0.162,0.363-0.365v-47.781
			c0-0.201-0.163-0.364-0.363-0.364h-12.612c-0.201,0-0.364,0.163-0.364,0.364V509.719z"/>
	</g>
	<circle id="TESTA" fill="#AF2025" cx="-364.483" cy="453.69" r="7.883"/>
</g>
<g>
	<g id="Layer_3">
		<g id="border_1_">
			<path fill="#FFFFFF" d="M-182.389,502.759c0,4.688,3.801,8.491,8.489,8.491h72.046c4.688,0,8.49-3.803,8.49-8.491v-72.045
				c0-4.688-3.803-8.489-8.49-8.489H-173.9c-4.688,0-8.489,3.801-8.489,8.489V502.759z"/>
			<path fill="none" stroke="#AF2025" stroke-width="6.8455" stroke-miterlimit="10" d="M-182.389,502.759
				c0,4.688,3.801,8.491,8.489,8.491h72.046c4.688,0,8.49-3.803,8.49-8.491v-72.045c0-4.688-3.803-8.489-8.49-8.489H-173.9
				c-4.688,0-8.489,3.801-8.489,8.489V502.759z"/>
		</g>
		<g id="front_2_" display="none">
			<path display="inline" fill="#145732" d="M-175.602,500.824c0,2.008,1.629,3.638,3.638,3.638h68.177
				c2.01,0,3.639-1.63,3.639-3.638v-68.176c0-2.01-1.629-3.64-3.639-3.64h-68.177c-2.009,0-3.638,1.63-3.638,3.64V500.824z"/>
		</g>
	</g>
	<g>
		<path fill="#145732" d="M-126.885,502.039c0,1.34,1.085,2.426,2.425,2.426h21.789c1.34,0,2.426-1.086,2.426-2.426v-21.788
			c0-1.339-1.086-2.425-2.426-2.425h-21.789c-1.34,0-2.425,1.086-2.425,2.425V502.039z"/>
	</g>
	<g>
		<path fill="#145732" d="M-126.885,453.223c0,1.34,1.085,2.426,2.425,2.426h21.789c1.34,0,2.426-1.086,2.426-2.426v-21.787
			c0-1.341-1.086-2.427-2.426-2.427h-21.789c-1.34,0-2.425,1.086-2.425,2.427V453.223z"/>
	</g>
	<g>
		<path fill="#145732" d="M-175.576,453.223c0,1.34,1.086,2.426,2.427,2.426h21.788c1.34,0,2.426-1.086,2.426-2.426v-21.787
			c0-1.341-1.086-2.427-2.426-2.427h-21.788c-1.341,0-2.427,1.086-2.427,2.427V453.223z"/>
	</g>
	<g>
		<path fill="#145732" d="M-175.576,502.039c0,1.34,1.086,2.426,2.427,2.426h21.788c1.34,0,2.426-1.086,2.426-2.426v-21.788
			c0-1.339-1.086-2.425-2.426-2.425h-21.788c-1.341,0-2.427,1.086-2.427,2.425V502.039z"/>
	</g>
</g>
<g>
	<g id="Layer_3_1_">
		<g id="border_2_">
			<path fill="#FFFFFF" d="M-182.02,391.62c0,4.793,3.886,8.681,8.681,8.681h73.658c4.794,0,8.68-3.888,8.68-8.681v-73.658
				c0-4.793-3.886-8.68-8.68-8.68h-73.658c-4.795,0-8.681,3.886-8.681,8.68V391.62z"/>
			<path fill="none" stroke="#AF2025" stroke-width="6.9987" stroke-miterlimit="10" d="M-182.02,391.62
				c0,4.793,3.886,8.681,8.681,8.681h73.658c4.794,0,8.68-3.888,8.68-8.681v-73.658c0-4.793-3.886-8.68-8.68-8.68h-73.658
				c-4.795,0-8.681,3.886-8.681,8.68V391.62z"/>
		</g>
		<g id="X_1_" display="none">
			<g display="inline">
				<g>
					<g>
						<g>
							<g>
								<defs>
									<polygon id="SVGID_1_" points="-85.79,307.35 -89.04,304.1 -136.482,351.54 -183.923,304.1 -187.174,307.35 
										-139.733,354.791 -187.174,402.232 -183.923,405.482 -136.482,358.041 -89.039,405.482 -85.79,402.232 -133.232,354.791 
																			"/>
								</defs>
								<clipPath id="SVGID_2_">
									<use xlink:href="#SVGID_1_"  overflow="visible"/>
								</clipPath>
								<g id="Base_1_" clip-path="url(#SVGID_2_)">
									<path fill="#FFFFFF" d="M-188.059,394.07c0,6.846,5.552,12.398,12.4,12.398h78.498c6.848,0,12.399-5.551,12.399-12.398
										v-78.499c0-6.849-5.551-12.401-12.399-12.401h-78.497c-6.849,0.001-12.4,5.553-12.4,12.401L-188.059,394.07
										L-188.059,394.07z"/>
								</g>
							</g>
						</g>
					</g>
				</g>
			</g>
		</g>
		<g id="front_1_">
			<path fill="#7A7A7A" d="M-175.082,389.643c0,2.052,1.665,3.72,3.719,3.72h69.703c2.055,0,3.721-1.667,3.721-3.72v-69.703
				c0-2.053-1.666-3.721-3.721-3.721h-69.703c-2.054,0-3.719,1.668-3.719,3.721V389.643z"/>
		</g>
	</g>
	<polyline fill="#FFFFFF" points="-168.488,375.48 -136.428,327.689 -104.369,375.48 	"/>
</g>
<g>
	<g id="Layer_3_2_">
		<g id="border_3_">
			<path fill="#FFFFFF" d="M-295.775,389.375c0,4.688,3.803,8.491,8.49,8.491h72.047c4.688,0,8.49-3.804,8.49-8.491v-72.046
				c0-4.688-3.802-8.489-8.49-8.489h-72.047c-4.688,0-8.49,3.801-8.49,8.489V389.375z"/>
			<path fill="none" stroke="#AF2025" stroke-width="6.8455" stroke-miterlimit="10" d="M-295.775,389.375
				c0,4.688,3.803,8.491,8.49,8.491h72.047c4.688,0,8.49-3.804,8.49-8.491v-72.046c0-4.688-3.802-8.489-8.49-8.489h-72.047
				c-4.688,0-8.49,3.801-8.49,8.489V389.375z"/>
		</g>
		<g id="front_3_">
			<path fill="#7A7A7A" d="M-288.989,387.439c0,2.009,1.629,3.639,3.639,3.639h68.178c2.009,0,3.639-1.63,3.639-3.639v-68.176
				c0-2.008-1.63-3.639-3.639-3.639h-68.178c-2.01,0-3.639,1.631-3.639,3.639V387.439z"/>
		</g>
	</g>
	<g>
		<g>
			<path fill="#FFFFFF" stroke="#7A7A7A" stroke-width="0.8557" stroke-miterlimit="10" d="M-267.975,386.488
				c0,0.754,0.61,1.363,1.363,1.363h12.256c0.754,0,1.364-0.61,1.364-1.363v-12.256c0-0.754-0.611-1.364-1.364-1.364h-12.255
				c-0.754,0-1.364,0.61-1.364,1.364V386.488L-267.975,386.488z"/>
		</g>
		<g>
			<path fill="#FFFFFF" stroke="#7A7A7A" stroke-width="0.8557" stroke-miterlimit="10" d="M-267.975,368.655
				c0,0.753,0.61,1.364,1.363,1.364h12.256c0.754,0,1.364-0.611,1.364-1.364v-12.257c0-0.752-0.611-1.363-1.364-1.363h-12.255
				c-0.754,0-1.364,0.611-1.364,1.363V368.655L-267.975,368.655z"/>
		</g>
		<g>
			<path fill="#FFFFFF" stroke="#7A7A7A" stroke-width="0.8557" stroke-miterlimit="10" d="M-285.738,368.655
				c0,0.753,0.611,1.364,1.364,1.364h12.256c0.754,0,1.364-0.611,1.364-1.364v-12.257c0-0.752-0.61-1.363-1.364-1.363h-12.256
				c-0.753,0-1.364,0.611-1.364,1.363V368.655z"/>
		</g>
		<g>
			<path fill="#FFFFFF" stroke="#7A7A7A" stroke-width="0.8557" stroke-miterlimit="10" d="M-285.738,386.488
				c0,0.754,0.611,1.363,1.364,1.363h12.256c0.754,0,1.364-0.61,1.364-1.363v-12.256c0-0.754-0.61-1.364-1.364-1.364h-12.256
				c-0.753,0-1.364,0.61-1.364,1.364V386.488z"/>
		</g>
	</g>
	<g>
		<g>
			<path fill="#FFFFFF" stroke="#7A7A7A" stroke-width="0.8557" stroke-miterlimit="10" d="M-232.037,386.488
				c0,0.754,0.611,1.363,1.364,1.363h12.256c0.754,0,1.364-0.61,1.364-1.363v-12.256c0-0.754-0.61-1.364-1.364-1.364h-12.256
				c-0.753,0-1.364,0.61-1.364,1.364V386.488z"/>
		</g>
		<g>
			<path fill="#FFFFFF" stroke="#7A7A7A" stroke-width="0.8557" stroke-miterlimit="10" d="M-232.037,368.655
				c0,0.753,0.611,1.364,1.364,1.364h12.256c0.754,0,1.364-0.611,1.364-1.364v-12.257c0-0.752-0.61-1.363-1.364-1.363h-12.256
				c-0.753,0-1.364,0.611-1.364,1.363V368.655z"/>
		</g>
		<g>
			<path fill="#FFFFFF" stroke="#7A7A7A" stroke-width="0.8557" stroke-miterlimit="10" d="M-249.798,368.655
				c0,0.753,0.609,1.364,1.363,1.364h12.256c0.754,0,1.364-0.611,1.364-1.364v-12.257c0-0.752-0.61-1.363-1.364-1.363h-12.256
				c-0.755,0-1.363,0.611-1.363,1.363V368.655z"/>
		</g>
		<g>
			<path fill="#FFFFFF" stroke="#7A7A7A" stroke-width="0.8557" stroke-miterlimit="10" d="M-249.798,386.488
				c0,0.754,0.609,1.363,1.363,1.363h12.256c0.754,0,1.364-0.61,1.364-1.363v-12.256c0-0.754-0.61-1.364-1.364-1.364h-12.256
				c-0.755,0-1.363,0.61-1.363,1.364V386.488z"/>
		</g>
	</g>
	<g>
		<path fill="#FFFFFF" d="M-286.593,351.236c0,1.339,1.086,2.425,2.426,2.425h65.545c1.34,0,2.426-1.086,2.426-2.425v-30.162
			c0-1.34-1.086-2.426-2.426-2.426h-65.546c-1.34,0-2.426,1.086-2.426,2.426L-286.593,351.236L-286.593,351.236z"/>
		<path fill="none" stroke="#7A7A7A" stroke-width="2.1392" stroke-miterlimit="10" d="M-286.593,351.236
			c0,1.339,1.086,2.425,2.426,2.425h65.545c1.34,0,2.426-1.086,2.426-2.425v-30.162c0-1.34-1.086-2.426-2.426-2.426h-65.546
			c-1.34,0-2.426,1.086-2.426,2.426L-286.593,351.236L-286.593,351.236z"/>
	</g>
</g>
<g>
	<g id="Layer_3_4_">
		<g id="border_5_">
			<path fill="#FFFFFF" d="M-69.004,502.76c0,4.688,3.802,8.491,8.49,8.491h72.045c4.689,0,8.488-3.802,8.488-8.491v-72.045
				c0-4.689-3.799-8.49-8.488-8.49h-72.045c-4.688,0-8.49,3.801-8.49,8.49V502.76z"/>
			<path fill="none" stroke="#AF2025" stroke-width="6.8455" stroke-miterlimit="10" d="M-69.004,502.76
				c0,4.688,3.802,8.491,8.49,8.491h72.045c4.689,0,8.488-3.802,8.488-8.491v-72.045c0-4.689-3.799-8.49-8.488-8.49h-72.045
				c-4.688,0-8.49,3.801-8.49,8.49V502.76z"/>
		</g>
		<g id="front_6_">
			<path fill="#145732" d="M-62.217,500.825c0,2.008,1.629,3.638,3.639,3.638H9.598c2.01,0,3.639-1.63,3.639-3.638v-68.177
				c0-2.01-1.629-3.639-3.639-3.639h-68.176c-2.01,0-3.639,1.629-3.639,3.639V500.825z"/>
		</g>
	</g>
	<circle fill="#FFFFFF" cx="-24.462" cy="466.737" r="32.271"/>
</g>
<g id="Layer_3_5_">
	<g id="border_7_">
		<path fill="#FFFFFF" d="M-296.656,503.754c0,4.793,3.886,8.68,8.68,8.68h73.658c4.794,0,8.681-3.887,8.681-8.68v-73.658
			c0-4.793-3.887-8.68-8.681-8.68h-73.658c-4.794,0-8.68,3.887-8.68,8.68V503.754z"/>
		<path fill="none" stroke="#AF2025" stroke-width="6.9987" stroke-miterlimit="10" d="M-296.656,503.754
			c0,4.793,3.886,8.68,8.68,8.68h73.658c4.794,0,8.681-3.887,8.681-8.68v-73.658c0-4.793-3.887-8.68-8.681-8.68h-73.658
			c-4.794,0-8.68,3.887-8.68,8.68V503.754z"/>
	</g>
	<g id="X_3_">
		<g>
			<g>
				<g>
					<defs>
						<polygon id="SVGID_3_" points="-200.426,419.482 -203.677,416.232 -251.118,463.674 -298.559,416.232 -301.81,419.484 
							-254.369,466.926 -301.81,514.367 -298.559,517.616 -251.118,470.176 -203.676,517.617 -200.426,514.366 -247.867,466.926 
													"/>
					</defs>
					<clipPath id="SVGID_4_">
						<use xlink:href="#SVGID_3_"  overflow="visible"/>
					</clipPath>
					<g id="Base_3_" clip-path="url(#SVGID_4_)">
						<path fill="#FFFFFF" d="M-302.694,506.204c0,6.847,5.551,12.399,12.4,12.399h78.498c6.848,0,12.398-5.551,12.398-12.399
							v-78.499c0-6.85-5.551-12.4-12.398-12.4h-78.499c-6.849,0-12.399,5.553-12.399,12.4V506.204z"/>
					</g>
				</g>
			</g>
		</g>
	</g>
	<g id="front_7_">
		<path fill="#EC9F24" d="M-289.719,501.775c0,2.054,1.666,3.721,3.72,3.721h69.703c2.054,0,3.72-1.667,3.72-3.721v-69.702
			c0-2.054-1.666-3.72-3.72-3.72h-69.703c-2.054,0-3.72,1.666-3.72,3.72V501.775z"/>
	</g>
	<g>
		<path fill="#020202" d="M-283.835,499.311c0,0.205,0.167,0.373,0.372,0.373h48.853c0.206,0,0.373-0.168,0.373-0.373v-12.896
			c0-0.206-0.167-0.372-0.373-0.372h-48.854c-0.206,0-0.373,0.167-0.373,0.372L-283.835,499.311L-283.835,499.311z"/>
		<circle fill="#020202" cx="-226.177" cy="492.818" r="8.06"/>
	</g>
</g>
<g id="border_8_">
	<path fill="#FFFFFF" d="M-409.161,616.145c0,4.689,3.801,8.491,8.49,8.491h72.045c4.689,0,8.49-3.802,8.49-8.491V544.1
		c0-4.688-3.801-8.489-8.49-8.489h-72.045c-4.689,0-8.49,3.801-8.49,8.489V616.145z"/>
	<path fill="none" stroke="#AF1F23" stroke-width="6.8454" stroke-miterlimit="10" d="M-409.161,616.145
		c0,4.689,3.801,8.491,8.49,8.491h72.045c4.689,0,8.49-3.802,8.49-8.491V544.1c0-4.688-3.801-8.489-8.49-8.489h-72.045
		c-4.689,0-8.49,3.801-8.49,8.489V616.145z"/>
</g>
<g>
	<g id="border_9_">
		<path fill="#FFFFFF" d="M-295.775,616.146c0,4.689,3.801,8.491,8.49,8.491h72.046c4.689,0,8.49-3.802,8.49-8.491V544.1
			c0-4.688-3.801-8.489-8.49-8.489h-72.046c-4.689,0-8.49,3.801-8.49,8.489V616.146z"/>
		<path fill="none" stroke="#AF1F23" stroke-width="6.8455" stroke-miterlimit="10" d="M-295.775,616.146
			c0,4.689,3.801,8.491,8.49,8.491h72.046c4.689,0,8.49-3.802,8.49-8.491V544.1c0-4.688-3.801-8.489-8.49-8.489h-72.046
			c-4.689,0-8.49,3.801-8.49,8.489V616.146z"/>
	</g>
	<g>
		<path fill="#AF1F23" d="M-244.91,621.919c0.203,0,0.366-0.163,0.366-0.363v-47.784c0-0.201-0.163-0.364-0.366-0.364h-12.612
			c-0.201,0-0.364,0.163-0.364,0.364v47.784c0,0.201,0.164,0.364,0.364,0.364L-244.91,621.919L-244.91,621.919z"/>
		<circle fill="#AF1F23" cx="-251.259" cy="565.526" r="7.883"/>
	</g>
</g>
<g>
	<g id="border_11_">
		<path fill="#FFFFFF" d="M-182.389,616.145c0,4.689,3.801,8.491,8.49,8.491h72.046c4.688,0,8.489-3.802,8.489-8.491V544.1
			c0-4.688-3.801-8.489-8.489-8.489H-173.9c-4.689,0-8.49,3.801-8.49,8.489V616.145z"/>
		<path fill="none" stroke="#AF1F23" stroke-width="6.8454" stroke-miterlimit="10" d="M-182.389,616.145
			c0,4.689,3.801,8.491,8.49,8.491h72.046c4.688,0,8.489-3.802,8.489-8.491V544.1c0-4.688-3.801-8.489-8.489-8.489H-173.9
			c-4.689,0-8.49,3.801-8.49,8.489V616.145z"/>
	</g>
	<path fill="#AF1F23" d="M-143.589,564.639c-0.184,0-0.331,0.1-0.331,0.222v29.111c0,0.122,0.147,0.222,0.331,0.222h11.406
		c0.182,0,0.33-0.1,0.33-0.222V564.86c0-0.123-0.147-0.222-0.33-0.222H-143.589L-143.589,564.639z"/>
	<circle fill="#AF1F23" cx="-137.843" cy="602.075" r="7.883"/>
	<path fill="#AF1F23" d="M-160.503,593.861c0,0.184,0.151,0.331,0.338,0.331h44.43c0.188,0,0.338-0.147,0.338-0.331v-11.406
		c0-0.182-0.151-0.329-0.338-0.329h-44.43c-0.188,0-0.338,0.147-0.338,0.329L-160.503,593.861L-160.503,593.861z"/>
	<path fill="#AF1F23" d="M-137.445,578.48c0.116,0.115,0.276,0.142,0.358,0.059l19.669-19.669c0.083-0.082,0.057-0.242-0.059-0.358
		l-7.19-7.189c-0.115-0.115-0.274-0.141-0.357-0.058l-19.669,19.669c-0.083,0.083-0.058,0.243,0.058,0.357L-137.445,578.48
		L-137.445,578.48z"/>
	<path fill="#AF1F23" d="M-131.105,571.291c0.115-0.115,0.142-0.275,0.059-0.357l-19.668-19.669
		c-0.083-0.083-0.243-0.057-0.358,0.059l-7.19,7.189c-0.115,0.115-0.14,0.274-0.058,0.356l19.669,19.67
		c0.082,0.083,0.242,0.058,0.357-0.058L-131.105,571.291L-131.105,571.291z"/>
</g>
<g id="Layer_3_3_">
	<g id="border_4_">
		<path fill="#FFFFFF" d="M-68.647,616.046c0,4.737,3.84,8.578,8.577,8.578h72.786c4.737,0,8.577-3.841,8.577-8.578v-72.785
			c0-4.736-3.839-8.577-8.577-8.577H-60.07c-4.736,0-8.577,3.841-8.577,8.577V616.046z"/>
		<path fill="none" stroke="#AF1F23" stroke-width="6.9158" stroke-miterlimit="10" d="M-68.647,616.046
			c0,4.737,3.84,8.578,8.577,8.578h72.786c4.737,0,8.577-3.841,8.577-8.578v-72.785c0-4.736-3.839-8.577-8.577-8.577H-60.07
			c-4.736,0-8.577,3.841-8.577,8.577V616.046z"/>
	</g>
	<g id="X_2_" display="none">
		<g display="inline">
			<g>
				<g>
					<defs>
						<polygon id="SVGID_5_" points="26.444,532.774 23.231,529.562 -23.648,576.44 -70.527,529.562 -73.739,532.775 
							-26.86,579.653 -73.74,626.534 -70.527,629.745 -23.648,582.865 23.232,629.746 26.444,626.533 -20.436,579.653 						"/>
					</defs>
					<clipPath id="SVGID_6_">
						<use xlink:href="#SVGID_5_"  overflow="visible"/>
					</clipPath>
					<g id="Base_2_" clip-path="url(#SVGID_6_)">
						<path fill="#FFFFFF" d="M-74.614,618.467c0,6.766,5.485,12.253,12.253,12.253h77.568c6.767,0,12.252-5.486,12.252-12.253
							v-77.568c0-6.768-5.484-12.254-12.252-12.254h-77.568c-6.767,0.001-12.253,5.486-12.253,12.254V618.467z"/>
					</g>
				</g>
			</g>
		</g>
	</g>
	<g id="front_5_" display="none">
		<path display="inline" fill="#EC9E22" d="M-61.791,614.092c0,2.028,1.646,3.676,3.675,3.676h68.877
			c2.029,0,3.676-1.647,3.676-3.676v-68.877c0-2.028-1.646-3.676-3.676-3.676h-68.877c-2.03,0-3.675,1.647-3.675,3.676V614.092z"/>
	</g>
	<g>
		<path fill="#AF1F23" d="M-55.977,611.655c0,0.205,0.165,0.369,0.368,0.369h48.274c0.204,0,0.369-0.164,0.369-0.369v-12.741
			c0-0.203-0.165-0.368-0.369-0.368H-55.61c-0.203,0-0.369,0.165-0.369,0.368L-55.977,611.655L-55.977,611.655z"/>
		<circle fill="#AF1F23" cx="0.996" cy="605.241" r="7.964"/>
	</g>
</g>
<polyline fill="#19397A" points="9.065,547.903 -22.995,595.695 -55.054,547.903 "/>
</svg>
